<?xml version="1.0" encoding="iso-8859-1"?>
<!-- Generator: Adobe Illustrator 19.0.0, SVG Export Plug-In . SVG Version: 6.00 Build 0)  -->
<svg version="1.1" id="Capa_1" xmlns="http://www.w3.org/2000/svg" xmlns:xlink="http://www.w3.org/1999/xlink" x="0px" y="0px"
	 viewBox="0 0 511.992 511.992" style="enable-background:new 0 0 511.992 511.992;" xml:space="preserve">
<path style="fill:#455A64;" d="M255.992,175.994h-64v-96c0-6.624-4.064-12.544-10.24-14.912c-6.112-2.432-13.152-0.768-17.6,4.16
	l-160,176c-5.536,6.112-5.536,15.424,0,21.536l160,176c3.104,3.36,7.424,5.216,11.84,5.216c1.952,0,3.904-0.352,5.76-1.056
	c6.176-2.4,10.24-8.32,10.24-14.944v-96h33.6c97.856,0,189.856,38.112,259.072,107.328c4.608,4.608,11.52,5.952,17.44,3.456
	c5.984-2.464,9.888-8.32,9.888-14.784C511.992,290.842,397.144,175.994,255.992,175.994z"/>
<g>
</g>
<g>
</g>
<g>
</g>
<g>
</g>
<g>
</g>
<g>
</g>
<g>
</g>
<g>
</g>
<g>
</g>
<g>
</g>
<g>
</g>
<g>
</g>
<g>
</g>
<g>
</g>
<g>
</g>
</svg>
